<svg xmlns="http://www.w3.org/2000/svg" xmlns:xlink="http://www.w3.org/1999/xlink" width="500" zoomAndPan="magnify" viewBox="0 0 375 374.999991" height="500" preserveAspectRatio="xMidYMid meet" version="1.0"><defs><g/><clipPath id="33c0997ac8"><path d="M 62 150 L 103.054688 150 L 103.054688 192 L 62 192 Z M 62 150 " clip-rule="nonzero"/></clipPath></defs><path fill="#08a3c2" d="M 101.324219 187.476562 C 101.585938 193.714844 99.769531 198.929688 95.75 201.847656 C 86.996094 208.195312 71.109375 201.234375 60.265625 186.296875 C 49.421875 171.359375 47.730469 154.105469 56.484375 147.757812 C 60.503906 144.839844 66.027344 144.734375 71.878906 146.917969 C 64.386719 143.328125 57.117188 142.945312 52.03125 146.636719 C 42.355469 153.65625 44.226562 172.726562 56.214844 189.238281 C 68.199219 205.75 85.757812 213.441406 95.433594 206.425781 C 100.523438 202.734375 102.414062 195.710938 101.324219 187.476562 " fill-opacity="1" fill-rule="nonzero"/><path fill="#d9d9d9" d="M 72.707031 152.832031 C 73.277344 151.425781 74.40625 150.3125 75.816406 149.761719 C 69.960938 147.066406 64.3125 146.832031 60.332031 149.722656 C 56.257812 152.675781 54.742188 158.296875 55.617188 164.890625 C 55.40625 159.898438 56.859375 155.71875 60.078125 153.386719 C 63.367188 151 67.914062 150.964844 72.707031 152.832031 " fill-opacity="1" fill-rule="nonzero"/><path fill="#d9d9d9" d="M 98.878906 181.445312 L 95.53125 181.445312 C 96.777344 188.054688 95.503906 193.789062 91.511719 196.683594 C 88.292969 199.019531 83.871094 199.105469 79.1875 197.359375 C 85.183594 200.230469 91.003906 200.535156 95.074219 197.582031 C 99.359375 194.476562 100.808594 188.417969 99.632812 181.390625 C 99.386719 181.421875 99.136719 181.445312 98.878906 181.445312 " fill-opacity="1" fill-rule="nonzero"/><g clip-path="url(#33c0997ac8)"><path fill="#3871c1" d="M 98.878906 162.171875 L 91.589844 162.171875 L 91.589844 154.886719 C 91.589844 152.613281 89.730469 150.757812 87.457031 150.757812 L 77.816406 150.757812 C 75.542969 150.757812 73.683594 152.613281 73.683594 154.886719 L 73.683594 162.171875 L 66.394531 162.171875 C 64.121094 162.171875 62.261719 164.03125 62.261719 166.300781 L 62.261719 175.941406 C 62.261719 178.210938 64.121094 180.070312 66.394531 180.070312 L 73.683594 180.070312 L 73.683594 187.355469 C 73.683594 189.625 75.542969 191.484375 77.816406 191.484375 L 87.457031 191.484375 C 89.730469 191.484375 91.589844 189.625 91.589844 187.355469 L 91.589844 180.070312 L 98.878906 180.070312 C 101.152344 180.070312 103.011719 178.210938 103.011719 175.941406 L 103.011719 166.300781 C 103.011719 164.03125 101.152344 162.171875 98.878906 162.171875 " fill-opacity="1" fill-rule="nonzero"/></g><path stroke-linecap="butt" transform="matrix(2.247354, 0, 0, 2.25, 118.235958, 183.456257)" fill="none" stroke-linejoin="miter" d="M -0.000704533 0.000344221 L 97.450695 0.000344221 " stroke="#a6a6a6" stroke-width="1" stroke-opacity="1" stroke-miterlimit="4"/><g fill="#3871c1" fill-opacity="1"><g transform="translate(115.519041, 173.984532)"><g><path d="M 1.519531 -2.082031 L 1.519531 0 L 10.355469 0 C 14.25 0 17.132812 -1.734375 17.132812 -5.3125 C 17.132812 -8.007812 15.503906 -9.3125 14.089844 -9.875 C 15.316406 -10.460938 16.625 -11.769531 16.625 -14.089844 C 16.625 -17.800781 13.34375 -19.214844 10.222656 -19.214844 L 1.519531 -19.214844 L 1.519531 -17.132812 L 3.230469 -16.757812 L 3.230469 -2.457031 Z M 9.660156 -10.96875 L 6.566406 -10.96875 L 6.566406 -16.8125 L 9.660156 -16.8125 C 11.824219 -16.8125 13.289062 -15.824219 13.289062 -13.902344 C 13.289062 -12.007812 11.847656 -10.96875 9.660156 -10.96875 Z M 9.902344 -2.402344 L 6.566406 -2.402344 L 6.566406 -8.566406 L 9.902344 -8.566406 C 12.277344 -8.566406 13.796875 -7.738281 13.796875 -5.578125 C 13.796875 -3.441406 12.300781 -2.402344 9.902344 -2.402344 Z M 9.902344 -2.402344 "/></g></g></g><g fill="#3871c1" fill-opacity="1"><g transform="translate(135.262321, 173.984532)"><g><path d="M 9.820312 0.320312 C 15.34375 0.320312 18.121094 -2.695312 18.121094 -6.777344 L 18.121094 -12.4375 C 18.121094 -16.519531 15.34375 -19.535156 9.820312 -19.535156 C 4.324219 -19.535156 1.519531 -16.519531 1.519531 -12.4375 L 1.519531 -6.777344 C 1.519531 -2.695312 4.324219 0.320312 9.820312 0.320312 Z M 9.820312 -2.136719 C 6.296875 -2.136719 4.855469 -4.082031 4.855469 -6.804688 L 4.855469 -12.410156 C 4.855469 -15.132812 6.296875 -17.078125 9.820312 -17.078125 C 13.371094 -17.078125 14.785156 -15.132812 14.785156 -12.410156 L 14.785156 -6.804688 C 14.785156 -4.082031 13.371094 -2.136719 9.820312 -2.136719 Z M 9.820312 -2.136719 "/></g></g></g><g fill="#3871c1" fill-opacity="1"><g transform="translate(156.286218, 173.984532)"><g><path d="M 9.820312 0.320312 C 15.34375 0.320312 18.121094 -2.695312 18.121094 -6.777344 L 18.121094 -12.4375 C 18.121094 -16.519531 15.34375 -19.535156 9.820312 -19.535156 C 4.324219 -19.535156 1.519531 -16.519531 1.519531 -12.4375 L 1.519531 -6.777344 C 1.519531 -2.695312 4.324219 0.320312 9.820312 0.320312 Z M 9.820312 -2.136719 C 6.296875 -2.136719 4.855469 -4.082031 4.855469 -6.804688 L 4.855469 -12.410156 C 4.855469 -15.132812 6.296875 -17.078125 9.820312 -17.078125 C 13.371094 -17.078125 14.785156 -15.132812 14.785156 -12.410156 L 14.785156 -6.804688 C 14.785156 -4.082031 13.371094 -2.136719 9.820312 -2.136719 Z M 9.820312 -2.136719 "/></g></g></g><g fill="#3871c1" fill-opacity="1"><g transform="translate(177.310113, 173.984532)"><g><path d="M 1.519531 -2.082031 L 1.519531 0 L 8.273438 0 L 8.273438 -2.082031 L 6.566406 -2.457031 L 6.566406 -6.324219 L 8.992188 -8.886719 L 14.332031 0 L 18.761719 0 L 18.761719 -2.082031 L 17.054688 -2.457031 L 12.648438 -8.699219 L 10.78125 -10.726562 L 16.519531 -16.757812 L 18.226562 -17.132812 L 18.226562 -19.214844 L 10.675781 -19.214844 L 10.675781 -17.132812 L 12.382812 -16.757812 L 6.566406 -9.875 L 6.566406 -16.757812 L 8.273438 -17.132812 L 8.273438 -19.214844 L 1.519531 -19.214844 L 1.519531 -17.132812 L 3.230469 -16.757812 L 3.230469 -2.457031 Z M 1.519531 -2.082031 "/></g></g></g><g fill="#3871c1" fill-opacity="1"><g transform="translate(198.253975, 173.984532)"><g><path d="M 1.519531 -2.082031 L 1.519531 0 L 8.273438 0 L 8.273438 -2.082031 L 6.566406 -2.457031 L 6.566406 -16.757812 L 8.273438 -17.132812 L 8.273438 -19.214844 L 1.519531 -19.214844 L 1.519531 -17.132812 L 3.230469 -16.757812 L 3.230469 -2.457031 Z M 1.519531 -2.082031 "/></g></g></g><g fill="#3871c1" fill-opacity="1"><g transform="translate(209.379779, 173.984532)"><g><path d="M 1.519531 -2.082031 L 1.519531 0 L 8.273438 0 L 8.273438 -2.082031 L 6.566406 -2.457031 L 6.566406 -14.4375 L 16.277344 0 L 19.613281 0 L 19.613281 -16.757812 L 21.324219 -17.132812 L 21.324219 -19.214844 L 14.570312 -19.214844 L 14.570312 -17.132812 L 16.277344 -16.757812 L 16.277344 -8.460938 L 16.597656 -4.855469 L 6.9375 -19.214844 L 1.519531 -19.214844 L 1.519531 -17.132812 L 3.230469 -16.757812 L 3.230469 -2.457031 Z M 1.519531 -2.082031 "/></g></g></g><g fill="#3871c1" fill-opacity="1"><g transform="translate(233.231714, 173.984532)"><g><path d="M 9.527344 0.320312 C 12.835938 0.320312 15.292969 -0.800781 16.867188 -2.9375 L 16.867188 -7.765625 L 18.574219 -8.140625 L 18.574219 -10.222656 L 11.980469 -10.222656 L 11.980469 -8.140625 L 13.691406 -7.765625 L 13.691406 -3.683594 C 12.890625 -2.695312 11.609375 -2.136719 9.714844 -2.136719 C 6.539062 -2.136719 4.910156 -3.710938 4.910156 -6.804688 L 4.910156 -12.410156 C 4.910156 -15.453125 6.671875 -17.078125 9.847656 -17.078125 C 11.929688 -17.078125 13.34375 -16.304688 14.222656 -15.238281 L 16.707031 -15.238281 L 16.707031 -17.425781 C 15.023438 -18.628906 12.835938 -19.535156 9.875 -19.535156 C 4.695312 -19.535156 1.574219 -16.894531 1.574219 -12.488281 L 1.574219 -6.726562 C 1.574219 -2.242188 4.484375 0.320312 9.527344 0.320312 Z M 9.527344 0.320312 "/></g></g></g><g fill="#3871c1" fill-opacity="1"><g transform="translate(253.908771, 173.984532)"><g><path d="M 9.847656 0.320312 C 12.460938 0.320312 14.757812 -0.375 16.597656 -1.707031 L 16.597656 -3.871094 L 14.117188 -3.871094 C 13.15625 -2.722656 11.714844 -2.136719 9.820312 -2.136719 C 6.644531 -2.136719 4.882812 -3.761719 4.882812 -6.804688 L 4.882812 -12.410156 C 4.882812 -15.453125 6.644531 -17.078125 9.820312 -17.078125 C 11.714844 -17.078125 13.210938 -16.492188 14.117188 -15.34375 L 16.597656 -15.34375 L 16.597656 -17.507812 C 14.757812 -18.839844 12.460938 -19.535156 9.847656 -19.535156 C 4.644531 -19.535156 1.546875 -16.894531 1.546875 -12.488281 L 1.546875 -6.726562 C 1.546875 -2.320312 4.644531 0.320312 9.847656 0.320312 Z M 9.847656 0.320312 "/></g></g></g><g fill="#3871c1" fill-opacity="1"><g transform="translate(272.87834, 173.984532)"><g><path d="M 19.613281 -2.082031 L 17.90625 -2.457031 L 11.476562 -19.214844 L 5.445312 -19.214844 L 5.445312 -17 L 7.632812 -16.519531 L 2.214844 -2.457031 L 0.398438 -2.082031 L 0.398438 0 L 7.390625 0 L 7.390625 -2.082031 L 5.496094 -2.457031 L 6.699219 -5.710938 L 13.503906 -5.710938 L 14.703125 -2.457031 L 12.996094 -2.082031 L 12.996094 0 L 19.613281 0 Z M 12.597656 -8.113281 L 7.578125 -8.113281 L 10.085938 -14.890625 Z M 12.597656 -8.113281 "/></g></g></g><g fill="#3871c1" fill-opacity="1"><g transform="translate(294.222389, 173.984532)"><g><path d="M 1.519531 -2.082031 L 1.519531 0 L 8.273438 0 L 8.273438 -2.082031 L 6.566406 -2.457031 L 6.566406 -7.605469 L 10.035156 -7.605469 L 13.558594 0 L 17.90625 0 L 17.90625 -2.082031 L 16.199219 -2.457031 L 13.984375 -6.589844 L 12.863281 -7.980469 C 15.503906 -8.753906 16.917969 -10.648438 16.917969 -13.398438 C 16.917969 -17.105469 14.304688 -19.214844 9.980469 -19.214844 L 1.519531 -19.214844 L 1.519531 -17.132812 L 3.230469 -16.757812 L 3.230469 -2.457031 Z M 9.714844 -10.007812 L 6.566406 -10.007812 L 6.566406 -16.8125 L 9.714844 -16.8125 C 12.117188 -16.8125 13.609375 -15.71875 13.609375 -13.398438 C 13.609375 -11.074219 12.117188 -10.007812 9.714844 -10.007812 Z M 9.714844 -10.007812 "/></g></g></g><g fill="#3871c1" fill-opacity="1"><g transform="translate(314.392548, 173.984532)"><g><path d="M 1.519531 -2.082031 L 1.519531 0 L 16.945312 0 L 16.945312 -4.804688 L 14.089844 -4.804688 L 13.609375 -2.402344 L 6.566406 -2.402344 L 6.566406 -8.59375 L 9.765625 -8.59375 L 10.246094 -6.40625 L 12.515625 -6.40625 L 12.515625 -13.210938 L 10.246094 -13.210938 L 9.765625 -10.996094 L 6.566406 -10.996094 L 6.566406 -16.8125 L 13.558594 -16.8125 L 14.039062 -14.703125 L 16.679688 -14.703125 L 16.679688 -19.214844 L 1.519531 -19.214844 L 1.519531 -17.132812 L 3.230469 -16.757812 L 3.230469 -2.457031 Z M 1.519531 -2.082031 "/></g></g></g><g fill="#048ba6" fill-opacity="1"><g transform="translate(117.505017, 198.356863)"><g><path d="M 4.375 0.140625 C 3.601562 0.140625 2.925781 -0.03125 2.34375 -0.375 C 1.769531 -0.726562 1.320312 -1.21875 1 -1.84375 C 0.6875 -2.476562 0.53125 -3.210938 0.53125 -4.046875 C 0.53125 -4.890625 0.691406 -5.628906 1.015625 -6.265625 C 1.347656 -6.910156 1.820312 -7.414062 2.4375 -7.78125 C 3.050781 -8.144531 3.773438 -8.328125 4.609375 -8.328125 C 5.566406 -8.328125 6.363281 -8.09375 7 -7.625 C 7.632812 -7.164062 8.046875 -6.535156 8.234375 -5.734375 L 6.5625 -5.734375 C 6.4375 -6.109375 6.207031 -6.398438 5.875 -6.609375 C 5.550781 -6.828125 5.128906 -6.9375 4.609375 -6.9375 C 3.796875 -6.9375 3.164062 -6.675781 2.71875 -6.15625 C 2.28125 -5.644531 2.0625 -4.9375 2.0625 -4.03125 C 2.0625 -3.125 2.28125 -2.421875 2.71875 -1.921875 C 3.15625 -1.429688 3.753906 -1.1875 4.515625 -1.1875 C 5.253906 -1.1875 5.8125 -1.382812 6.1875 -1.78125 C 6.5625 -2.1875 6.789062 -2.71875 6.875 -3.375 L 4.796875 -3.375 L 4.796875 -4.5 L 8.375 -4.5 L 8.375 0 L 7 0 L 6.890625 -1.078125 C 6.617188 -0.679688 6.285156 -0.378906 5.890625 -0.171875 C 5.492188 0.0351562 4.988281 0.140625 4.375 0.140625 Z M 4.375 0.140625 "/></g></g></g><g fill="#048ba6" fill-opacity="1"><g transform="translate(127.52066, 198.356863)"><g><path d="M 0.796875 0 L 0.796875 -8.1875 L 3.796875 -8.1875 C 4.453125 -8.1875 4.988281 -8.070312 5.40625 -7.84375 C 5.832031 -7.625 6.148438 -7.320312 6.359375 -6.9375 C 6.578125 -6.5625 6.6875 -6.144531 6.6875 -5.6875 C 6.6875 -5.1875 6.554688 -4.726562 6.296875 -4.3125 C 6.035156 -3.90625 5.628906 -3.609375 5.078125 -3.421875 L 6.765625 0 L 5.046875 0 L 3.53125 -3.21875 L 2.296875 -3.21875 L 2.296875 0 Z M 2.296875 -4.328125 L 3.703125 -4.328125 C 4.203125 -4.328125 4.566406 -4.445312 4.796875 -4.6875 C 5.035156 -4.925781 5.15625 -5.242188 5.15625 -5.640625 C 5.15625 -6.035156 5.039062 -6.347656 4.8125 -6.578125 C 4.582031 -6.816406 4.207031 -6.9375 3.6875 -6.9375 L 2.296875 -6.9375 Z M 2.296875 -4.328125 "/></g></g></g><g fill="#048ba6" fill-opacity="1"><g transform="translate(135.785451, 198.356863)"><g><path d="M 4.625 0.140625 C 3.8125 0.140625 3.097656 -0.0351562 2.484375 -0.390625 C 1.867188 -0.753906 1.390625 -1.253906 1.046875 -1.890625 C 0.703125 -2.523438 0.53125 -3.257812 0.53125 -4.09375 C 0.53125 -4.925781 0.703125 -5.660156 1.046875 -6.296875 C 1.390625 -6.929688 1.867188 -7.425781 2.484375 -7.78125 C 3.097656 -8.144531 3.8125 -8.328125 4.625 -8.328125 C 5.4375 -8.328125 6.148438 -8.144531 6.765625 -7.78125 C 7.378906 -7.425781 7.859375 -6.929688 8.203125 -6.296875 C 8.546875 -5.660156 8.71875 -4.925781 8.71875 -4.09375 C 8.71875 -3.257812 8.546875 -2.523438 8.203125 -1.890625 C 7.859375 -1.253906 7.378906 -0.753906 6.765625 -0.390625 C 6.148438 -0.0351562 5.4375 0.140625 4.625 0.140625 Z M 4.625 -1.203125 C 5.40625 -1.203125 6.023438 -1.457031 6.484375 -1.96875 C 6.953125 -2.488281 7.1875 -3.195312 7.1875 -4.09375 C 7.1875 -4.988281 6.953125 -5.691406 6.484375 -6.203125 C 6.023438 -6.722656 5.40625 -6.984375 4.625 -6.984375 C 3.84375 -6.984375 3.21875 -6.722656 2.75 -6.203125 C 2.289062 -5.691406 2.0625 -4.988281 2.0625 -4.09375 C 2.0625 -3.195312 2.289062 -2.488281 2.75 -1.96875 C 3.21875 -1.457031 3.84375 -1.203125 4.625 -1.203125 Z M 4.625 -1.203125 "/></g></g></g><g fill="#048ba6" fill-opacity="1"><g transform="translate(146.011188, 198.356863)"><g><path d="M 3.953125 0.140625 C 3.347656 0.140625 2.800781 0.0195312 2.3125 -0.21875 C 1.832031 -0.457031 1.453125 -0.816406 1.171875 -1.296875 C 0.890625 -1.773438 0.75 -2.382812 0.75 -3.125 L 0.75 -8.1875 L 2.25 -8.1875 L 2.25 -3.125 C 2.25 -2.476562 2.398438 -2 2.703125 -1.6875 C 3.015625 -1.382812 3.441406 -1.234375 3.984375 -1.234375 C 4.523438 -1.234375 4.953125 -1.382812 5.265625 -1.6875 C 5.578125 -2 5.734375 -2.476562 5.734375 -3.125 L 5.734375 -8.1875 L 7.21875 -8.1875 L 7.21875 -3.125 C 7.21875 -2.382812 7.066406 -1.773438 6.765625 -1.296875 C 6.472656 -0.816406 6.078125 -0.457031 5.578125 -0.21875 C 5.085938 0.0195312 4.546875 0.140625 3.953125 0.140625 Z M 3.953125 0.140625 "/></g></g></g><g fill="#048ba6" fill-opacity="1"><g transform="translate(154.952977, 198.356863)"><g><path d="M 0.796875 0 L 0.796875 -8.1875 L 3.828125 -8.1875 C 4.472656 -8.1875 5.007812 -8.078125 5.4375 -7.859375 C 5.875 -7.640625 6.195312 -7.335938 6.40625 -6.953125 C 6.613281 -6.566406 6.71875 -6.140625 6.71875 -5.671875 C 6.71875 -5.210938 6.613281 -4.796875 6.40625 -4.421875 C 6.207031 -4.046875 5.894531 -3.742188 5.46875 -3.515625 C 5.039062 -3.285156 4.492188 -3.171875 3.828125 -3.171875 L 2.296875 -3.171875 L 2.296875 0 Z M 2.296875 -4.390625 L 3.734375 -4.390625 C 4.253906 -4.390625 4.628906 -4.503906 4.859375 -4.734375 C 5.085938 -4.960938 5.203125 -5.273438 5.203125 -5.671875 C 5.203125 -6.078125 5.085938 -6.394531 4.859375 -6.625 C 4.628906 -6.851562 4.253906 -6.96875 3.734375 -6.96875 L 2.296875 -6.96875 Z M 2.296875 -4.390625 "/></g></g></g><g fill="#048ba6" fill-opacity="1"><g transform="translate(163.031007, 198.356863)"><g/></g></g><g fill="#048ba6" fill-opacity="1"><g transform="translate(166.801948, 198.356863)"><g><path d="M 1.6875 0 L 1.6875 -6.46875 L 0.34375 -6.15625 L 0.34375 -7.3125 L 2.3125 -8.1875 L 3.234375 -8.1875 L 3.234375 0 Z M 1.6875 0 "/></g></g></g><g fill="#048ba6" fill-opacity="1"><g transform="translate(171.82183, 198.356863)"><g><path d="M 0.59375 0 L 0.59375 -1.09375 C 1.09375 -1.5 1.578125 -1.90625 2.046875 -2.3125 C 2.523438 -2.71875 2.945312 -3.117188 3.3125 -3.515625 C 3.6875 -3.910156 3.984375 -4.296875 4.203125 -4.671875 C 4.421875 -5.054688 4.53125 -5.425781 4.53125 -5.78125 C 4.53125 -6.113281 4.4375 -6.410156 4.25 -6.671875 C 4.070312 -6.929688 3.773438 -7.0625 3.359375 -7.0625 C 2.929688 -7.0625 2.609375 -6.921875 2.390625 -6.640625 C 2.171875 -6.359375 2.0625 -6.019531 2.0625 -5.625 L 0.609375 -5.625 C 0.617188 -6.21875 0.75 -6.710938 1 -7.109375 C 1.25 -7.515625 1.582031 -7.816406 2 -8.015625 C 2.414062 -8.222656 2.878906 -8.328125 3.390625 -8.328125 C 4.222656 -8.328125 4.867188 -8.097656 5.328125 -7.640625 C 5.796875 -7.179688 6.03125 -6.585938 6.03125 -5.859375 C 6.03125 -5.410156 5.925781 -4.972656 5.71875 -4.546875 C 5.507812 -4.117188 5.238281 -3.707031 4.90625 -3.3125 C 4.570312 -2.914062 4.207031 -2.539062 3.8125 -2.1875 C 3.425781 -1.84375 3.050781 -1.523438 2.6875 -1.234375 L 6.234375 -1.234375 L 6.234375 0 Z M 0.59375 0 "/></g></g></g><g fill="#048ba6" fill-opacity="1"><g transform="translate(179.479657, 198.356863)"><g><path d="M 4.53125 0 L 4.53125 -1.515625 L 0.5 -1.515625 L 0.5 -2.71875 L 4.34375 -8.1875 L 6.03125 -8.1875 L 6.03125 -2.8125 L 7.109375 -2.8125 L 7.109375 -1.515625 L 6.03125 -1.515625 L 6.03125 0 Z M 2.109375 -2.8125 L 4.625 -2.8125 L 4.625 -6.53125 Z M 2.109375 -2.8125 "/></g></g></g><g fill="#048ba6" fill-opacity="1"><g transform="translate(187.954556, 198.356863)"><g><path d="M 4.5 0.140625 C 3.675781 0.140625 2.96875 -0.0351562 2.375 -0.390625 C 1.78125 -0.742188 1.320312 -1.238281 1 -1.875 C 0.6875 -2.507812 0.53125 -3.242188 0.53125 -4.078125 C 0.53125 -4.910156 0.6875 -5.644531 1 -6.28125 C 1.320312 -6.925781 1.78125 -7.425781 2.375 -7.78125 C 2.96875 -8.144531 3.675781 -8.328125 4.5 -8.328125 C 5.476562 -8.328125 6.28125 -8.082031 6.90625 -7.59375 C 7.539062 -7.101562 7.9375 -6.421875 8.09375 -5.546875 L 6.4375 -5.546875 C 6.332031 -5.984375 6.113281 -6.328125 5.78125 -6.578125 C 5.457031 -6.835938 5.019531 -6.96875 4.46875 -6.96875 C 3.71875 -6.96875 3.128906 -6.707031 2.703125 -6.1875 C 2.273438 -5.675781 2.0625 -4.972656 2.0625 -4.078125 C 2.0625 -3.179688 2.273438 -2.476562 2.703125 -1.96875 C 3.128906 -1.457031 3.71875 -1.203125 4.46875 -1.203125 C 5.019531 -1.203125 5.457031 -1.320312 5.78125 -1.5625 C 6.113281 -1.800781 6.332031 -2.128906 6.4375 -2.546875 L 8.09375 -2.546875 C 7.9375 -1.703125 7.539062 -1.039062 6.90625 -0.5625 C 6.28125 -0.09375 5.476562 0.140625 4.5 0.140625 Z M 4.5 0.140625 "/></g></g></g><g fill="#048ba6" fill-opacity="1"><g transform="translate(197.549998, 198.356863)"><g><path d="M 4.53125 0 L 4.53125 -1.515625 L 0.5 -1.515625 L 0.5 -2.71875 L 4.34375 -8.1875 L 6.03125 -8.1875 L 6.03125 -2.8125 L 7.109375 -2.8125 L 7.109375 -1.515625 L 6.03125 -1.515625 L 6.03125 0 Z M 2.109375 -2.8125 L 4.625 -2.8125 L 4.625 -6.53125 Z M 2.109375 -2.8125 "/></g></g></g><g fill="#048ba6" fill-opacity="1"><g transform="translate(206.024897, 198.356863)"><g><path d="M 1.6875 0 L 1.6875 -6.46875 L 0.34375 -6.15625 L 0.34375 -7.3125 L 2.3125 -8.1875 L 3.234375 -8.1875 L 3.234375 0 Z M 1.6875 0 "/></g></g></g></svg>