<svg fill="#000000" xmlns="http://www.w3.org/2000/svg"  viewBox="0 0 24 24" width="48px" height="48px" fill-rule="evenodd" clip-rule="evenodd"><path d="M 12 1.25 C 6.067 1.25 1.25 6.067 1.25 12 C 1.25 14.508133 2.1184476 16.810983 3.5605469 18.640625 C 3.5563836 18.644257 3.5569164 18.642836 3.5527344 18.646484 C 3.5787181 18.679432 3.6103602 18.707599 3.6367188 18.740234 C 3.8021588 18.945204 3.9784271 19.139849 4.1582031 19.332031 C 4.2309509 19.409784 4.2980483 19.492792 4.3730469 19.568359 C 4.6332461 19.830562 4.9055158 20.080012 5.1914062 20.314453 C 5.2785365 20.385904 5.3735119 20.446888 5.4628906 20.515625 C 5.6664281 20.672165 5.8712658 20.826823 6.0859375 20.96875 C 6.2112242 21.051575 6.3418284 21.125479 6.4707031 21.203125 C 6.6696047 21.322972 6.869168 21.439816 7.0761719 21.546875 C 7.2071662 21.614636 7.3405494 21.677773 7.4746094 21.740234 C 7.6815923 21.836658 7.8915973 21.926395 8.1054688 22.009766 C 8.2577327 22.069147 8.4108702 22.125192 8.5664062 22.177734 C 8.7738425 22.247795 8.9843934 22.309672 9.1972656 22.367188 C 9.3537096 22.409469 9.5087906 22.45298 9.6679688 22.488281 C 9.9250052 22.545281 10.187603 22.588745 10.451172 22.626953 C 10.568073 22.643894 10.682697 22.666547 10.800781 22.679688 C 11.195204 22.723629 11.593935 22.75 12 22.75 C 12.406065 22.75 12.804796 22.723629 13.199219 22.679688 C 13.317303 22.666547 13.431927 22.643894 13.548828 22.626953 C 13.812397 22.588745 14.074995 22.545281 14.332031 22.488281 C 14.491209 22.45298 14.64629 22.409469 14.802734 22.367188 C 15.015607 22.309672 15.226157 22.247795 15.433594 22.177734 C 15.58913 22.125192 15.742267 22.069147 15.894531 22.009766 C 16.108403 21.926395 16.318408 21.836658 16.525391 21.740234 C 16.659451 21.677773 16.792834 21.614636 16.923828 21.546875 C 17.130832 21.439816 17.330395 21.322972 17.529297 21.203125 C 17.658172 21.125479 17.788776 21.051575 17.914062 20.96875 C 18.128734 20.826823 18.333572 20.672165 18.537109 20.515625 C 18.626488 20.446888 18.721463 20.385904 18.808594 20.314453 C 19.094484 20.080012 19.366754 19.830562 19.626953 19.568359 C 19.701952 19.492792 19.769049 19.409784 19.841797 19.332031 C 20.021573 19.139849 20.197841 18.945204 20.363281 18.740234 C 20.38964 18.707599 20.421282 18.679432 20.447266 18.646484 L 20.439453 18.640625 C 21.881552 16.810983 22.75 14.508133 22.75 12 C 22.75 6.067 17.933 1.25 12 1.25 z M 12 2.75 C 17.105 2.75 21.25 6.895 21.25 12 C 21.25 14.125917 20.524046 16.079647 19.316406 17.642578 C 17.396076 15.853544 14.829502 14.75 12 14.75 C 9.1714712 14.75 6.6034092 15.85343 4.6835938 17.642578 C 3.4759535 16.079647 2.75 14.125917 2.75 12 C 2.75 6.895 6.895 2.75 12 2.75 z M 12 5.25 A 4.25 4.25 0 0 0 12 13.75 A 4.25 4.25 0 0 0 12 5.25 z"/></svg>