<?xml version="1.0" encoding="UTF-8"?>
<svg xmlns="http://www.w3.org/2000/svg" xmlns:xlink="http://www.w3.org/1999/xlink" viewBox="0 0 50 50" width="50px" height="50px">
<g id="surface14678503">
<path style=" stroke:none;fill-rule:nonzero;fill:rgb(100%,100%,100%);fill-opacity:1;" d="M 25 2 C 12.308594 2 2 12.308594 2 25 C 2 37.691406 12.308594 48 25 48 C 37.691406 48 48 37.691406 48 25 C 48 12.308594 37.691406 2 25 2 Z M 25 4 C 36.609375 4 46 13.390625 46 25 C 46 36.609375 36.609375 46 25 46 C 13.390625 46 4 36.609375 4 25 C 4 13.390625 13.390625 4 25 4 Z M 25 11 C 17.28125 11 11 17.28125 11 25 C 11 32.71875 17.28125 39 25 39 C 31.21875 39 36.5 34.933594 38.316406 29.308594 C 38.417969 29.003906 38.363281 28.671875 38.175781 28.410156 C 37.988281 28.152344 37.6875 28 37.363281 28 L 33.050781 28 C 32.671875 28 32.328125 28.214844 32.15625 28.554688 C 30.847656 31.1875 28.144531 33 25 33 C 20.570312 33 17 29.429688 17 25 C 17 20.570312 20.570312 17 25 17 C 28.148438 17 30.847656 18.8125 32.15625 21.445312 C 32.328125 21.785156 32.671875 22 33.050781 22 L 37.363281 22 C 37.6875 22 37.988281 21.847656 38.175781 21.589844 C 38.363281 21.328125 38.417969 20.996094 38.316406 20.691406 C 36.5 15.066406 31.21875 11 25 11 Z M 25 13 C 29.824219 13 33.84375 15.910156 35.753906 20 L 33.570312 20 C 31.835938 17.035156 28.675781 15 25 15 C 19.488281 15 15 19.488281 15 25 C 15 30.511719 19.488281 35 25 35 C 28.675781 35 31.832031 32.964844 33.566406 30 L 35.75 30 C 33.84375 34.089844 29.824219 37 25 37 C 18.359375 37 13 31.640625 13 25 C 13 18.359375 18.359375 13 25 13 Z M 25 13 "/>
</g>
</svg>
